<svg class="flxLogo" xmlns="http://www.w3.org/2000/svg" viewBox="0 0 220 30" width="220" height="44">
    <path fill="#fff"
        d="M48.7 16.5v.6h-13c.2 1.1.8 2 1.6 2.7.9.6 1.9 1 3 .9.8 0 1.6-.1 2.4-.5.8-.4 1.5-.9 2.2-1.5l3 2.6a9.7 9.7 0 0 1-7.6 3.4 10 10 0 0 1-7-2.6 9.8 9.8 0 0 1-2.8-6.9c0-1.3.2-2.5.7-3.7a9 9 0 0 1 8.5-5.9c4-.2 7.5 2.4 8.5 6.2.4 1.2.5 2.5.6 3.7v.1l-.1.9zm-6.3-5.4a3.9 3.9 0 0 0-2.7-1.1c-1 0-2 .4-2.7 1-.7.8-1.2 1.8-1.3 2.9h8c-.2-1-.7-2-1.3-2.8zm-37-5.8v5.1H17v4.8H5.4v9.3H0V.5h18.5v4.8H5.4zm16.4 19.2V.5h5.3v24h-5.3zm41.3 0-3.8-5.7-3.8 5.7H50l6.6-9.3-6.3-9H56l3.5 5.4L63 6.2h5.5l-6.3 9 6.6 9.4h-5.7zm49.9-8.8a9.4 9.4 0 0 1 9.5-9.2c5 .1 9.1 4 9.2 9 0 5.1-4.1 9.2-9.3 9.2h-.1a9 9 0 0 1-9.3-9zm16 0c0-3.9-2.9-7-6.7-7-3.9 0-6.6 3.1-6.6 6.9 0 3.8 2.8 6.9 6.6 6.9 4 0 6.7-3 6.7-6.8zm7-8.9h2.7v3.5c1.5-2.1 3.6-4 6.9-4 4.3 0 8.6 3.4 8.6 9.2 0 5.8-4.3 9.2-8.6 9.2a8.2 8.2 0 0 1-6.9-3.8V30H136V6.8zm15.4 8.9c0-4.3-2.9-7-6.3-7a6.7 6.7 0 0 0-6.5 6.8c0 4.1 3.2 6.9 6.5 6.9 3.4.1 6.2-2.4 6.3-6.7zm6.9-8.9h2.7v3.5c1.5-2.1 3.6-4 6.9-4 4.3 0 8.6 3.4 8.6 9.2 0 5.8-4.3 9.2-8.6 9.2a8.2 8.2 0 0 1-6.9-3.8V30h-2.7V6.8zm15.4 8.9c0-4.3-2.9-7-6.3-7a6.7 6.7 0 0 0-6.5 6.8c0 4.1 3.2 6.9 6.5 6.9 3.5.1 6.3-2.4 6.3-6.7zm6.6 0c0-5.2 3.7-9.3 8.6-9.3 5.3 0 8.4 4.2 8.4 9.4v.9H183c.4 3.8 3.1 6 6.3 6 2.5 0 4.2-1 5.7-2.5l1.7 1.5c-1.8 2-4 3.3-7.4 3.3a8.8 8.8 0 0 1-8.9-8.8l-.1-.5zm14.3-1c-.3-3.2-2.2-6-5.7-6-3.1 0-5.5 2.5-5.8 6h11.5zM71.4 21l1.7-2c2.5 2.3 5 3.4 8.3 3.4 3.3 0 5.4-1.7 5.4-4.1v-.1c0-2.2-1.2-3.5-6.3-4.5-5.6-1.2-8.2-3-8.2-6.9 0-3.8 3.4-6.5 8-6.5a13 13 0 0 1 8.6 3l-1.6 2.1a10.7 10.7 0 0 0-7-2.6c-3.2 0-5.2 1.7-5.2 3.9v.1c0 2.3 1.2 3.5 6.6 4.6 5.4 1.2 7.9 3.1 7.9 6.8v.1c0 4.1-3.5 6.8-8.3 6.8a16 16 0 0 1-9.9-4.1zM93.4.2h2.7v9.7a7 7 0 0 1 6.1-3.5c4.4 0 6.9 2.9 6.9 7.1v11h-2.7V14.2c0-3.3-1.8-5.3-5-5.3-3.1 0-5.4 2.2-5.4 5.5v10.1h-2.7L93.4.2zm108.3 6.6h2.7v4.6c1.3-3 3.9-5.1 7.3-4.9v2.9h-.2c-3.9 0-7.2 2.8-7.2 8.1v7h-2.6V6.8zm11.7-3.5c0-1.8 1.5-3.2 3.3-3.3 1.8 0 3.3 1.4 3.3 3.2s-1.5 3.2-3.3 3.2a3.2 3.2 0 0 1-3.3-3.1zm6.3 0a2.9 2.9 0 0 0-5.8 0c0 1.6 1.3 2.9 2.9 2.8 1.6 0 2.9-1.3 2.9-2.8zm-4.2-1.8h1.5c.7 0 1.3.4 1.3 1 0 .5-.3.9-.8 1l.9 1.3h-.8l-.8-1.1h-.7v1.1h-.6V1.5zm1.4 1.7c.5 0 .7-.2.7-.5s-.2-.5-.7-.5h-.8v1.1h.8z">
    </path>
</svg>